<svg xmlns="http://www.w3.org/2000/svg" xmlns:xlink="http://www.w3.org/1999/xlink" width="500" zoomAndPan="magnify" viewBox="0 0 375 374.999991" height="500" preserveAspectRatio="xMidYMid meet" version="1.0"><defs><g/><clipPath id="0f6c73075f"><path d="M 0 0 L 374.398438 0 L 374.398438 375 L 0 375 Z M 0 0 " clip-rule="nonzero"/></clipPath><clipPath id="92c89ab102"><path d="M 17.25 0 L 357.148438 0 C 361.722656 0 366.113281 1.816406 369.347656 5.050781 C 372.582031 8.289062 374.398438 12.675781 374.398438 17.25 L 374.398438 357.75 C 374.398438 362.324219 372.582031 366.710938 369.347656 369.949219 C 366.113281 373.183594 361.722656 375 357.148438 375 L 17.25 375 C 12.675781 375 8.289062 373.183594 5.050781 369.949219 C 1.816406 366.710938 0 362.324219 0 357.75 L 0 17.25 C 0 12.675781 1.816406 8.289062 5.050781 5.050781 C 8.289062 1.816406 12.675781 0 17.25 0 Z M 17.25 0 " clip-rule="nonzero"/></clipPath></defs><g clip-path="url(#0f6c73075f)"><g clip-path="url(#92c89ab102)"><path fill="#0a63c5" d="M 0 0 L 374.398438 0 L 374.398438 374.398438 L 0 374.398438 Z M 0 0 " fill-opacity="1" fill-rule="nonzero"/></g></g><g fill="#ffffff" fill-opacity="1"><g transform="translate(66.813816, 320.980081)"><g><path d="M 16.015625 25.734375 C 11.484375 25.734375 7.921875 23.304688 5.328125 18.453125 C 2.742188 13.597656 1.128906 9.226562 0.484375 5.34375 C 0.160156 3.71875 0 2.097656 0 0.484375 C 0 -1.128906 0 -2.585938 0 -3.890625 C 0 -5.503906 0 -6.875 0 -8 C 0 -9.132812 0 -10.03125 0 -10.6875 C 0.320312 -22.976562 1.210938 -34.460938 2.671875 -45.140625 C 4.128906 -55.828125 5.988281 -66.347656 8.25 -76.703125 C 8.894531 -79.296875 9.460938 -82.046875 9.953125 -84.953125 C 10.441406 -87.867188 9.550781 -90.617188 7.28125 -93.203125 C 6.3125 -94.503906 6.066406 -95.800781 6.546875 -97.09375 C 7.035156 -98.382812 7.765625 -99.515625 8.734375 -100.484375 C 12.296875 -105.015625 15.046875 -109.789062 16.984375 -114.8125 C 18.929688 -119.832031 20.710938 -125.09375 22.328125 -130.59375 C 25.890625 -141.59375 30.257812 -154.050781 35.4375 -167.96875 C 40.613281 -181.882812 46.4375 -195.960938 52.90625 -210.203125 C 59.382812 -224.441406 66.34375 -237.789062 73.78125 -250.25 C 81.226562 -262.71875 89.160156 -273.160156 97.578125 -281.578125 C 100.171875 -283.515625 102.4375 -284.484375 104.375 -284.484375 C 104.695312 -284.484375 105.097656 -284.398438 105.578125 -284.234375 C 106.066406 -284.078125 106.800781 -283.835938 107.78125 -283.515625 C 110.039062 -282.546875 111.410156 -281.171875 111.890625 -279.390625 C 112.378906 -277.609375 112.460938 -275.742188 112.140625 -273.796875 C 109.878906 -264.085938 105.914062 -252.84375 100.25 -240.0625 C 94.582031 -227.28125 88.109375 -214.171875 80.828125 -200.734375 C 73.546875 -187.304688 66.179688 -174.523438 58.734375 -162.390625 C 51.296875 -150.253906 44.828125 -139.976562 39.328125 -131.5625 C 33.492188 -123.144531 28.878906 -112.300781 25.484375 -99.03125 C 22.085938 -85.757812 19.414062 -72.242188 17.46875 -58.484375 C 15.53125 -44.734375 14.078125 -32.84375 13.109375 -22.8125 C 12.460938 -17.957031 12.054688 -13.019531 11.890625 -8 C 11.734375 -2.988281 12.460938 1.941406 14.078125 6.796875 C 14.722656 9.390625 16.179688 10.6875 18.453125 10.6875 C 20.710938 10.6875 23.625 8.582031 27.1875 4.375 C 30.75 0.164062 33.175781 -2.75 34.46875 -4.375 C 45.789062 -18.9375 57.441406 -34.390625 69.421875 -50.734375 C 81.398438 -67.078125 92.726562 -82.691406 103.40625 -97.578125 C 104.050781 -98.867188 105.34375 -100.890625 107.28125 -103.640625 C 109.226562 -106.398438 111.007812 -107.78125 112.625 -107.78125 C 112.945312 -107.78125 114.082031 -107.453125 116.03125 -106.796875 C 118.289062 -105.828125 119.097656 -104.050781 118.453125 -101.46875 C 118.453125 -98.875 117.804688 -96.929688 116.515625 -95.640625 C 115.546875 -93.691406 114.410156 -91.664062 113.109375 -89.5625 C 111.816406 -87.457031 110.523438 -85.4375 109.234375 -83.5 C 104.054688 -77.03125 98.875 -70.316406 93.6875 -63.359375 C 88.507812 -56.398438 83.332031 -49.195312 78.15625 -41.75 C 72.976562 -34.300781 67.71875 -27.015625 62.375 -19.890625 C 57.039062 -12.773438 51.785156 -5.820312 46.609375 0.96875 C 44.984375 3.5625 42.3125 6.878906 38.59375 10.921875 C 34.875 14.960938 30.988281 18.441406 26.9375 21.359375 C 22.894531 24.273438 19.253906 25.734375 16.015625 25.734375 Z M 55.34375 -174.28125 C 55.34375 -174.601562 55.503906 -174.765625 55.828125 -174.765625 C 55.828125 -174.765625 55.828125 -174.601562 55.828125 -174.28125 C 60.359375 -183.34375 64.96875 -192.484375 69.65625 -201.703125 C 74.351562 -210.929688 79.128906 -220.078125 83.984375 -229.140625 L 97.09375 -255.359375 L 97.09375 -255.84375 C 96.769531 -256.164062 96.609375 -256.488281 96.609375 -256.8125 C 96.609375 -256.164062 96.769531 -255.679688 97.09375 -255.359375 C 95.15625 -256.003906 94.1875 -256.328125 94.1875 -256.328125 C 92.882812 -256.328125 91.265625 -255.03125 89.328125 -252.4375 C 82.847656 -241.4375 76.773438 -230.351562 71.109375 -219.1875 C 65.453125 -208.019531 60.359375 -196.453125 55.828125 -184.484375 C 54.210938 -180.273438 54.050781 -176.875 55.34375 -174.28125 Z M 55.34375 -174.28125 "/></g></g></g><g fill="#ffffff" fill-opacity="1"><g transform="translate(160.990442, 320.980081)"><g><path d="M -2.421875 -4.859375 C -6.304688 -4.859375 -8.570312 -7.125 -9.21875 -11.65625 C -9.539062 -12.625 -9.703125 -14.726562 -9.703125 -17.96875 C -8.734375 -26.375 -7.113281 -34.625 -4.84375 -42.71875 C -2.582031 -50.8125 -0.160156 -58.90625 2.421875 -67 C 4.691406 -73.144531 6.957031 -79.210938 9.21875 -85.203125 C 11.488281 -91.191406 13.753906 -97.257812 16.015625 -103.40625 C 18.285156 -109.550781 20.550781 -115.617188 22.8125 -121.609375 C 25.082031 -127.597656 27.347656 -133.664062 29.609375 -139.8125 C 31.234375 -142.082031 33.097656 -145.5625 35.203125 -150.25 C 37.304688 -154.945312 39.648438 -157.296875 42.234375 -157.296875 C 42.234375 -157.296875 43.207031 -156.972656 45.15625 -156.328125 C 48.382812 -154.378906 49.191406 -151.625 47.578125 -148.0625 L 44.65625 -142.25 C 42.394531 -136.09375 40.050781 -129.941406 37.625 -123.796875 C 35.195312 -117.648438 32.847656 -111.5 30.578125 -105.34375 C 28.316406 -99.195312 25.972656 -92.96875 23.546875 -86.65625 C 21.117188 -80.34375 18.609375 -74.113281 16.015625 -67.96875 C 15.691406 -66.675781 15.285156 -65.300781 14.796875 -63.84375 C 14.316406 -62.382812 13.753906 -60.847656 13.109375 -59.234375 C 11.816406 -56.640625 11.976562 -53.5625 13.59375 -50 C 15.53125 -54.207031 19.085938 -60.191406 24.265625 -67.953125 C 29.453125 -75.722656 35.28125 -83.816406 41.75 -92.234375 C 48.21875 -100.648438 54.6875 -107.769531 61.15625 -113.59375 C 67.632812 -119.425781 73.300781 -122.34375 78.15625 -122.34375 C 83.65625 -122.34375 87.210938 -120.078125 88.828125 -115.546875 C 90.453125 -111.015625 91.585938 -106.644531 92.234375 -102.4375 C 92.554688 -100.164062 92.796875 -98.054688 92.953125 -96.109375 C 93.117188 -94.171875 93.367188 -92.234375 93.703125 -90.296875 C 93.703125 -88.359375 93.78125 -86.414062 93.9375 -84.46875 C 94.101562 -82.53125 94.347656 -80.585938 94.671875 -78.640625 C 94.992188 -73.140625 96.445312 -68.125 99.03125 -63.59375 C 100 -61.007812 101.941406 -59.71875 104.859375 -59.71875 C 105.503906 -59.71875 105.988281 -59.878906 106.3125 -60.203125 C 106.3125 -60.203125 106.390625 -60.203125 106.546875 -60.203125 C 106.710938 -60.203125 106.957031 -60.203125 107.28125 -60.203125 C 110.195312 -61.171875 112.945312 -62.546875 115.53125 -64.328125 C 118.125 -66.109375 120.71875 -68.128906 123.3125 -70.390625 C 125.570312 -72.335938 127.671875 -74.28125 129.609375 -76.21875 C 131.554688 -78.15625 133.664062 -80.257812 135.9375 -82.53125 C 137.875 -84.46875 139.894531 -86.40625 142 -88.34375 C 144.101562 -90.289062 146.285156 -92.238281 148.546875 -94.1875 C 151.140625 -96.445312 153.328125 -98.382812 155.109375 -100 C 156.890625 -101.625 158.101562 -102.757812 158.75 -103.40625 C 159.394531 -104.050781 160.039062 -104.695312 160.6875 -105.34375 C 161.332031 -105.988281 161.816406 -106.472656 162.140625 -106.796875 C 163.117188 -107.773438 164.253906 -108.265625 165.546875 -108.265625 C 166.835938 -108.265625 167.96875 -107.773438 168.9375 -106.796875 C 171.207031 -104.859375 171.859375 -102.59375 170.890625 -100 C 169.910156 -97.414062 168.453125 -95.148438 166.515625 -93.203125 C 165.222656 -91.910156 162.710938 -89.566406 158.984375 -86.171875 C 155.265625 -82.773438 151.21875 -79.050781 146.84375 -75 C 142.476562 -70.957031 138.4375 -67.316406 134.71875 -64.078125 C 131 -60.847656 128.488281 -58.582031 127.1875 -57.28125 C 121.363281 -51.78125 114.894531 -48.382812 107.78125 -47.09375 C 107.445312 -47.09375 107.117188 -47.09375 106.796875 -47.09375 C 106.472656 -47.09375 106.148438 -47.09375 105.828125 -47.09375 C 105.179688 -46.769531 104.375 -46.609375 103.40625 -46.609375 C 96.9375 -46.609375 91.757812 -50.003906 87.875 -56.796875 C 84.957031 -62.296875 83.175781 -68.285156 82.53125 -74.765625 C 82.207031 -77.347656 81.960938 -79.851562 81.796875 -82.28125 C 81.640625 -84.707031 81.398438 -87.054688 81.078125 -89.328125 C 80.753906 -91.585938 80.425781 -93.929688 80.09375 -96.359375 C 79.769531 -98.785156 79.445312 -101.132812 79.125 -103.40625 C 78.476562 -105.988281 77.347656 -107.28125 75.734375 -107.28125 C 74.441406 -107.28125 73.304688 -106.796875 72.328125 -105.828125 C 59.710938 -94.503906 48.628906 -81.722656 39.078125 -67.484375 C 29.535156 -53.242188 21.039062 -38.515625 13.59375 -23.296875 C 12.945312 -22.003906 12.21875 -20.628906 11.40625 -19.171875 C 10.59375 -17.710938 9.863281 -16.175781 9.21875 -14.5625 C 8.570312 -12.945312 7.679688 -11.488281 6.546875 -10.1875 C 5.421875 -8.894531 4.046875 -7.601562 2.421875 -6.3125 C 1.128906 -5.34375 -0.484375 -4.859375 -2.421875 -4.859375 Z M -2.421875 -4.859375 "/></g></g></g></svg>